<svg width="80" height="80" viewBox="0 0 80 80" fill="none" xmlns="http://www.w3.org/2000/svg">
<path d="M25.9483 41.0671L36.6966 41.088L41.0449 34.1957L35.3021 23.3231L25.9483 41.0671Z" fill="url(#paint0_linear_13_2)"/>
<path d="M20.1846 31.2406L25.9692 41.0658C29.8117 33.8043 32.6868 28.5354 33.2923 27.6098C33.4634 27.3489 33.7563 26.9711 34.2154 26.8714C34.4209 26.8313 34.6328 26.8381 34.8352 26.8914C35.0377 26.9447 35.2255 27.043 35.3846 27.1791L43.2616 41.2098C46.4062 44.5981 50.5083 45.2332 52.5539 43.6098C53.7969 42.6252 54.0874 40.9551 54.1539 39.9791L38.0923 11.9175C37.8142 11.5594 36.9169 10.5021 35.3846 10.1944C34.8365 10.0824 34.2713 10.0824 33.7231 10.1944C32.0677 10.5477 31.1729 11.8781 30.9539 12.2252L20.1846 31.2406Z" fill="url(#paint1_linear_13_2)"/>
<path d="M37.1693 60.7483C48.6856 60.9871 57.3379 61.04 61.0056 61.0154C62.2276 61.0375 63.4394 60.7887 64.5539 60.2868C66.9932 59.1557 68.2991 56.9637 68.944 55.6099C69.556 53.9558 69.8617 52.2042 69.8462 50.4406C69.8355 49.2524 69.6734 48.0703 69.3637 46.9231C69.0414 45.7493 68.562 44.6245 67.9385 43.5791C67.9047 44.6148 67.6531 45.6318 67.2 46.5637C65.1705 50.6769 59.8425 51.1976 59.3231 51.2406H42.9539L37.1693 60.7483Z" fill="url(#paint2_linear_13_2)"/>
<path d="M30.9809 12.1908C31.5618 11.2061 33.0117 9.09045 35.7538 7.79445C36.0258 7.67137 40.4689 5.63199 44.7384 7.67137C47.0769 8.78768 48.3643 10.6068 48.923 11.4252C52.139 16.1329 59.1864 27.9089 68.0406 43.7538C68.3951 44.6154 68.8861 46.2154 68.4923 48.0615C68.3286 48.8258 68.123 49.7009 67.344 50.4C66.4246 51.2172 65.3009 51.2615 64.923 51.2615L42.9538 51.2406L37.2307 41.5791L53.3538 41.3637C53.6209 41.2308 53.915 41.0203 54.0307 40.6868C54.102 40.4106 54.0804 40.1186 53.9692 39.856L38.0307 11.9791C37.856 11.7329 36.8824 10.4209 35.1384 10.1944C33.5446 9.98768 31.9298 10.7668 30.9809 12.1908Z" fill="url(#paint3_linear_13_2)"/>
<path d="M31.5077 51.1176L37.1692 60.7483L42.9538 51.2406L37.2308 41.5791L31.5077 51.1176Z" fill="url(#paint4_linear_13_2)"/>
<path d="M8.33844 51.2714L14.1538 41.5791L19.9594 51.0966L13.9077 61.0868L8.33844 51.2714Z" fill="#F95738"/>
<path d="M13.9077 61.0831L19.9545 51.0991L31.0782 51.1495L25.3096 60.9957L13.9077 61.0831Z" fill="url(#paint5_linear_13_2)"/>
<path d="M14.1539 41.5791L19.9619 51.1028L31.0782 51.1483L25.7034 41.4966L14.1539 41.5791Z" fill="url(#paint6_linear_13_2)"/>
<defs>
<linearGradient id="paint0_linear_13_2" x1="25.9483" y1="32.2055" x2="41.0438" y2="32.2055" gradientUnits="userSpaceOnUse">
<stop stop-color="#F95738"/>
<stop offset="1" stop-color="#B91400"/>
</linearGradient>
<linearGradient id="paint1_linear_13_2" x1="20.1846" y1="27.2868" x2="54.1514" y2="27.2868" gradientUnits="userSpaceOnUse">
<stop stop-color="#F95738"/>
<stop offset="1" stop-color="#B91400"/>
</linearGradient>
<linearGradient id="paint2_linear_13_2" x1="37.1693" y1="52.3" x2="69.8444" y2="52.3" gradientUnits="userSpaceOnUse">
<stop stop-color="#F95738"/>
<stop offset="1" stop-color="#B91400"/>
</linearGradient>
<linearGradient id="paint3_linear_13_2" x1="30.9809" y1="29.0155" x2="68.6352" y2="29.0155" gradientUnits="userSpaceOnUse">
<stop stop-color="#F95738"/>
<stop offset="1" stop-color="#B91400"/>
</linearGradient>
<linearGradient id="paint4_linear_13_2" x1="31.5077" y1="51.1637" x2="42.953" y2="51.1637" gradientUnits="userSpaceOnUse">
<stop stop-color="#F95738"/>
<stop offset="1" stop-color="#B91400"/>
</linearGradient>
<linearGradient id="paint5_linear_13_2" x1="13.9077" y1="56.0911" x2="31.0769" y2="56.0911" gradientUnits="userSpaceOnUse">
<stop stop-color="#F95738"/>
<stop offset="1" stop-color="#B91400"/>
</linearGradient>
<linearGradient id="paint6_linear_13_2" x1="14.1539" y1="46.3225" x2="31.0769" y2="46.3225" gradientUnits="userSpaceOnUse">
<stop stop-color="#F95738"/>
<stop offset="1" stop-color="#B91400"/>
</linearGradient>
</defs>
</svg>
